<svg width="219" height="85" viewBox="0 0 219 85" fill="none" xmlns="http://www.w3.org/2000/svg">
<path d="M23.96 70.84C18.68 70.84 14.4933 70.3867 11.4 69.48C8.30667 68.5733 6.01333 67.2933 4.52 65.64C3.02667 64.04 2.04 62.1467 1.56 59.96C1.13333 57.72 0.92 55.32 0.92 52.76C0.92 48.4933 1.02667 43.6133 1.24 38.12C1.50667 32.6267 1.82667 26.7333 2.2 20.44C2.62667 14.0933 3.08 7.53333 3.56 0.759997L18.12 2.2C17.5867 6.30667 17.1067 10.52 16.68 14.84C16.3067 19.1067 15.9867 23.2667 15.72 27.32C15.4533 31.3733 15.24 35.0533 15.08 38.36C14.92 41.6667 14.7867 44.44 14.68 46.68C14.6267 48.8667 14.6 50.28 14.6 50.92C14.6 52.7867 14.8133 54.2 15.24 55.16C15.6667 56.0667 16.52 56.68 17.8 57C19.08 57.32 20.9467 57.48 23.4 57.48C26.4933 57.48 29.9867 57.2933 33.88 56.92C37.7733 56.4933 41.72 55.88 45.72 55.08C49.72 54.28 53.3733 53.32 56.68 52.2L59.8 65.96C56.1733 66.8667 52.2533 67.6933 48.04 68.44C43.88 69.1867 39.72 69.7733 35.56 70.2C31.4 70.6267 27.5333 70.84 23.96 70.84Z" fill="#13F96B"/>
<path d="M89.4063 71.4C84.2863 71.4 79.7796 70.3867 75.8863 68.36C72.0463 66.3867 69.0329 63.6133 66.8463 60.04C64.7129 56.4667 63.6463 52.3333 63.6463 47.64C63.6463 44.8133 64.1263 41.8533 65.0863 38.76C66.0463 35.6133 67.5929 32.68 69.7263 29.96C71.8596 27.24 74.6596 25.0267 78.1263 23.32C81.6463 21.6133 85.9129 20.76 90.9263 20.76C94.5529 20.76 97.5929 21.16 100.046 21.96C102.553 22.76 104.58 23.8 106.126 25.08C107.726 26.36 108.926 27.72 109.726 29.16C110.58 30.6 111.14 31.9867 111.406 33.32C111.726 34.6 111.886 35.6667 111.886 36.52C111.886 41.6933 109.7 45.6933 105.326 48.52C101.006 51.2933 94.8729 52.68 86.9263 52.68C85.1129 52.68 83.3796 52.6 81.7263 52.44C80.1263 52.28 78.6329 52.0933 77.2463 51.88C78.2596 54.5467 79.9396 56.52 82.2863 57.8C84.6329 59.0267 87.0596 59.64 89.5663 59.64C93.1929 59.64 96.3929 59 99.1663 57.72C101.94 56.3867 104.553 54.36 107.006 51.64L114.126 61.88C112.42 63.2667 110.5 64.7067 108.366 66.2C106.286 67.6933 103.726 68.92 100.686 69.88C97.6463 70.8933 93.8863 71.4 89.4063 71.4ZM91.1663 32.76C88.0196 32.76 85.2463 33.56 82.8463 35.16C80.4463 36.76 78.6863 38.8667 77.5663 41.48C78.8996 41.6933 80.2063 41.88 81.4863 42.04C82.8196 42.1467 84.1263 42.2 85.4063 42.2C86.5796 42.2 87.9129 42.0933 89.4063 41.88C90.9529 41.6667 92.4463 41.3467 93.8863 40.92C95.3796 40.4933 96.6063 39.96 97.5663 39.32C98.5263 38.6267 99.0063 37.8267 99.0063 36.92C99.0063 36.4933 98.7929 35.96 98.3663 35.32C97.9396 34.68 97.1663 34.0933 96.0463 33.56C94.9263 33.0267 93.2996 32.76 91.1663 32.76ZM138.884 65.4C135.524 65.4 132.671 64.8933 130.324 63.88C127.978 62.8667 126.031 61.56 124.484 59.96C122.991 58.3067 121.818 56.5467 120.964 54.68C120.111 52.76 119.524 50.92 119.204 49.16C118.884 47.3467 118.724 45.7733 118.724 44.44C118.724 41.88 119.071 39.24 119.764 36.52C120.511 33.8 121.738 31.2667 123.444 28.92C125.204 26.5733 127.578 24.68 130.564 23.24C133.604 21.8 137.418 21.08 142.004 21.08C143.391 21.08 144.671 21.1867 145.844 21.4C147.018 21.6133 148.111 21.9067 149.124 22.28V19.64H162.964C162.911 22.84 162.858 26.4667 162.804 30.52C162.751 34.52 162.724 39.0533 162.724 44.12C162.724 46.7333 162.724 49.48 162.724 52.36C162.778 55.1867 162.804 58.28 162.804 61.64C162.804 66.2267 162.191 69.9867 160.964 72.92C159.738 75.8533 158.164 78.12 156.244 79.72C154.324 81.32 152.324 82.4667 150.244 83.16C148.218 83.9067 146.324 84.3333 144.564 84.44C142.858 84.6 141.578 84.68 140.724 84.68C138.644 84.68 136.351 84.44 133.844 83.96C131.338 83.5333 128.831 82.8133 126.324 81.8C123.818 80.84 121.524 79.5867 119.444 78.04L125.284 65.88C126.618 67 127.951 68.0133 129.284 68.92C130.618 69.88 132.164 70.6267 133.924 71.16C135.684 71.7467 137.871 72.04 140.484 72.04C143.151 72.04 145.124 71.56 146.404 70.6C147.684 69.6933 148.511 68.4667 148.884 66.92C149.311 65.4267 149.551 63.7733 149.604 61.96C147.791 63.2933 145.951 64.2 144.084 64.68C142.218 65.16 140.484 65.4 138.884 65.4ZM130.724 43.32C130.724 46.36 131.551 48.76 133.204 50.52C134.911 52.28 137.231 53.16 140.164 53.16C144.271 53.16 147.338 50.7867 149.364 46.04C149.364 44.3333 149.338 42.6 149.284 40.84C149.284 39.0267 149.258 37.2667 149.204 35.56C147.071 34.1733 144.618 33.48 141.844 33.48C138.431 33.48 135.711 34.3867 133.684 36.2C131.711 37.96 130.724 40.3333 130.724 43.32Z" fill="#F4C237"/>
<path d="M193.616 71.56C189.349 71.56 185.616 70.8667 182.416 69.48C179.269 68.0933 176.656 66.2 174.576 63.8C172.496 61.3467 170.949 58.5467 169.936 55.4C168.922 52.2533 168.416 48.9467 168.416 45.48C168.416 41.96 169.029 38.7067 170.256 35.72C171.536 32.68 173.269 30.04 175.456 27.8C177.696 25.56 180.309 23.8267 183.296 22.6C186.282 21.32 189.536 20.68 193.056 20.68C196.736 20.68 200.149 21.32 203.296 22.6C206.442 23.88 209.189 25.6667 211.536 27.96C213.882 30.2533 215.696 32.9467 216.976 36.04C218.309 39.1333 218.976 42.4933 218.976 46.12C218.976 54.1733 216.762 60.44 212.336 64.92C207.909 69.3467 201.669 71.56 193.616 71.56ZM193.536 58.6C197.429 58.6 200.389 57.5067 202.416 55.32C204.496 53.1333 205.536 49.9867 205.536 45.88C205.536 42.2 204.416 39.24 202.176 37C199.936 34.76 197.002 33.64 193.376 33.64C191.189 33.64 189.189 34.2267 187.376 35.4C185.562 36.52 184.096 38.04 182.976 39.96C181.909 41.8267 181.376 43.9067 181.376 46.2C181.376 48.2267 181.776 50.2 182.576 52.12C183.429 54.04 184.762 55.6133 186.576 56.84C188.389 58.0133 190.709 58.6 193.536 58.6Z" fill="white"/>
</svg>
